PathFileType	4	(X/Y/Z)	C:/Users/opensim2020/Desktop/walking_exp_matlab/subject02_walking14_straight_04.trc																																																																																																																									
DataRate	CameraRate	NumFrames	NumMarkers	Units	OrigDataRate	OrigDataStartFrame	OrigNumFrames																																																																																																																					
100	100	7	41	mm	100	1797	137																																																																																																																					
Frame#	Time	LFHD			RFHD			LBHD			RBHD			C7			T10			CLAV			STRN			RBAK			LSHO			LUPA			LELB			LFRM			LWRA			LWRB			LFIN			RSHO			RUPA			RELB			RFRM			RWRA			RWRB			RFIN			LASI			RASI			LPSI			RPSI			LTHI			LKNE			LTIB			LANK			LHEE			LTOE			RTHI			RKNE			RTIB			RANK			RHEE			RTOE			*39			*40		
		X1	Y1	Z1	X2	Y2	Z2	X3	Y3	Z3	X4	Y4	Z4	X5	Y5	Z5	X6	Y6	Z6	X7	Y7	Z7	X8	Y8	Z8	X9	Y9	Z9	X10	Y10	Z10	X11	Y11	Z11	X12	Y12	Z12	X13	Y13	Z13	X14	Y14	Z14	X15	Y15	Z15	X16	Y16	Z16	X17	Y17	Z17	X18	Y18	Z18	X19	Y19	Z19	X20	Y20	Z20	X21	Y21	Z21	X22	Y22	Z22	X23	Y23	Z23	X24	Y24	Z24	X25	Y25	Z25	X26	Y26	Z26	X27	Y27	Z27	X28	Y28	Z28	X29	Y29	Z29	X30	Y30	Z30	X31	Y31	Z31	X32	Y32	Z32	X33	Y33	Z33	X34	Y34	Z34	X35	Y35	Z35	X36	Y36	Z36	X37	Y37	Z37	X38	Y38	Z38	X39	Y39	Z39	X40	Y40	Z40	X41	Y41	Z41
																																																																																																																												
120	1.19	697.20923	1708.23657	942.21649	722.07813	1699.92993	1083.69543	562.44897	1643.1814	964.96106	575.78149	1634.16882	1107.56775	520.91705	1494.21326	1050.23779	502.67978	1213.33008	1070.56433	665.02606	1439.36279	1020.45392	739.6369	1277.89014	1035.35486	490.25015	1315.91492	1128.24231	561.46692	1461.09729	864.84821	502.51544	1268.09119	800.47498	465.09619	1135.89563	796.35773	422.47644	1016.03705	777.85938	433.5928	875.58801	773.43201	382.65729	899.86487	767.83557	371.10605	836.91473	752.04059	615.00104	1480.10278	1224.18555	619.22223	1298.62671	1328.01538	672.21057	1166.72644	1372.97327	770.86584	1092.35059	1379.39075	885.44049	1033.60986	1347.44934	858.63885	995.90253	1380.14795	928.60687	985.6709	1380.80542	742.82349	969.8595	927.49707	747.63245	948.91492	1176.81897	532.94519	1008.32886	1014.03644	532.37518	1007.99164	1131.65759	765.2984	667.34119	891.29987	789.25812	471.13849	939.54938	744.55084	282.44827	950.05743	753.18219	66.34361	993.75079	720.80841	39.49301	1050.65088	906.98975	30.32498	969.9306	636.72485	650.95325	1283.35168	606.68115	450.05231	1284.72778	451.40738	350.5423	1292.71875	301.66901	232.17989	1262.23267	251.22675	223.88443	1198.96594	329.09314	69.09576	1278.82935	617.36353	1787.06091	1043.11011	-2846.04932	1034.39136	3357.2959
121	1.2	709.46362	1710.38696	938.49292	735.18103	1702.29456	1080.07971	574.76282	1645.16382	962.64532	589.02393	1636.70129	1105.15869	533.81012	1496.68713	1048.18945	515.20764	1215.68494	1068.73608	677.41028	1441.75244	1018.13684	752.05676	1280.14038	1032.83447	502.50003	1318.47083	1126.57056	573.3053	1463.48291	862.80627	516.03815	1269.46045	798.46234	480.31244	1136.85449	794.12195	439.62729	1016.02411	775.72107	454.76474	875.69244	771.7735	403.23856	898.83313	765.73834	393.61563	835.24139	750.24115	627.81995	1482.04224	1222.12427	631.03101	1300.06653	1325.1626	682.85614	1167.46399	1369.11499	780.13879	1091.01953	1375.15747	893.42133	1029.40662	1342.81104	866.02545	992.80475	1375.99829	935.82294	980.90576	1376.04907	754.12531	971.62939	924.34869	760.36835	951.24133	1174.49841	544.88239	1010.7981	1011.64282	544.51465	1010.45477	1128.78247	771.74933	666.56946	888.92438	794.07977	470.81827	937.70215	747.03436	282.84256	948.55029	753.21301	66.40902	993.68481	720.78949	39.5197	1050.6842	907.02185	30.25759	969.82312	658.20325	652.78052	1280.68274	633.66479	451.74069	1282.68274	477.75742	354.01059	1290.05896	327.20935	236.68854	1258.87756	276.86099	226.50742	1194.90271	355.23471	74.93365	1281.66553	630.18591	1789.30664	1039.85718	-2845.96436	1034.37952	3357.25293
122	1.21	721.31805	1711.9657	935.18158	748.24738	1704.75269	1076.45544	587.19574	1647.29907	960.8952	602.16864	1639.38562	1102.94751	546.1145	1499.40173	1046.08093	527.53229	1218.28638	1067.0105	689.62488	1444.16638	1015.98718	764.19965	1282.45313	1030.42126	515.10828	1320.776	1124.13184	585.19141	1466.12329	860.85126	529.6853	1271.52856	796.28271	496.43127	1137.95313	791.48596	458.22729	1016.09473	773.37183	476.8949	876.22296	770.15643	424.58707	897.79724	763.48279	416.74854	834.12042	748.20789	640.36816	1484.37585	1220.04663	642.80847	1301.6438	1322.15686	693.58521	1167.95654	1364.49475	789.23358	1089.63831	1371.02747	900.86945	1025.18091	1338.21228	872.98615	989.5993	1372.06189	942.50159	975.83618	1371.40674	765.40717	973.62488	921.85461	772.75031	954.12781	1172.88965	556.67877	1013.41742	1009.1402	556.3045	1013.01001	1125.84021	777.25208	665.47559	886.44659	798.67365	470.45297	935.84839	749.7431	283.00549	946.71271	753.17719	66.38663	993.63519	720.72717	39.53885	1050.69934	906.67395	30.134	969.52283	679.41522	655.19482	1278.31873	660.41278	454.38394	1280.33521	504.52216	356.88513	1287.14954	353.62622	239.92412	1255.46338	303.25101	227.74583	1190.99915	383.32635	79.82296	1283.58716	643.03479	1791.68884	1036.70374	-2845.86938	1034.44849	3357.53784
123	1.22	733.07355	1714.21252	931.70966	761.31702	1707.1886	1073.01135	598.95496	1649.69421	958.35596	615.28839	1642.1355	1100.69849	558.5932	1502.25745	1044.18835	539.7002	1220.94263	1065.28088	701.76483	1446.58069	1013.94025	776.22467	1284.76428	1028.05298	527.23236	1323.42883	1122.63281	597.07092	1468.94275	858.98059	543.60095	1273.33325	794.05627	511.827	1139.18091	789.23163	477.31271	1015.94946	771.09027	499.46579	876.72272	768.16016	446.97565	896.92053	760.98846	440.97906	833.14557	745.96802	653.09174	1486.61768	1217.91138	654.41333	1303.51575	1319.50928	704.13342	1169.21008	1361.02673	798.16028	1088.24548	1366.91882	908.05847	1020.58612	1333.74561	879.52545	986.27289	1368.3064	948.72058	969.9552	1366.6543	776.8476	975.6236	919.6012	784.82306	957.4231	1171.74548	568.44336	1016.03662	1006.56482	568.0376	1015.60181	1122.78174	782.22748	664.7774	884.01184	802.61688	469.97888	933.65741	752.12433	282.87695	944.68097	753.05927	66.39591	993.51318	720.61597	39.6433	1050.75867	906.37604	30.11145	969.18896	700.15369	657.8476	1275.63403	686.85272	457.50824	1277.65906	531.42609	359.24124	1283.82556	380.63559	241.9902	1251.97083	330.38348	227.40154	1187.43958	413.44116	84.27129	1285.44336	656.04321	1794.1604	1033.50085	-2845.9541	1034.23645	3357.37671
124	1.23	745.00696	1716.19373	928.60303	774.33057	1709.56665	1069.5929	610.94385	1651.97046	956.21631	628.32904	1644.92273	1098.46033	571.0415	1505.01489	1042.47473	551.85394	1223.51392	1063.43213	713.86029	1448.99707	1012.01965	788.15417	1287.01343	1025.7677	539.69556	1325.66541	1120.2627	608.91278	1471.80579	857.1178	558.22369	1275.21692	791.89563	527.29718	1140.73547	786.74585	497.11761	1015.71899	768.77081	522.72174	877.52203	766.30957	469.62805	896.27972	758.76892	465.93826	832.09509	743.61786	665.77527	1489.13733	1215.98682	666.0415	1305.40906	1316.5354	715.12811	1169.78296	1356.13794	806.974	1086.84204	1363.04993	914.83124	1015.75806	1329.38733	885.6864	982.8454	1364.70471	954.3089	964.07336	1362.07849	788.22144	977.55554	917.7337	796.69159	960.9881	1170.87781	580.10553	1018.6192	1003.84564	579.77197	1018.20337	1119.65295	786.80542	664.50323	881.7652	806.01453	469.42935	931.53259	753.90887	282.44083	943.03058	752.85181	66.37914	993.4809	720.45801	39.67985	1050.75427	906.26624	30.11748	968.76471	720.40186	660.65533	1272.59656	712.82648	460.75766	1274.87256	557.75702	361.83606	1280.86902	408.40039	242.7782	1248.72778	358.21857	225.64931	1184.28882	445.1243	87.5167	1286.48328	668.97192	1796.74268	1030.61072	-2845.85938	1034.46594	3357.17432
125	1.24	756.88312	1718.0813	925.51239	787.3139	1711.78796	1066.32861	623.11255	1654.2887	954.16327	641.31848	1647.61853	1096.36975	583.5127	1507.85413	1041.11133	563.82458	1226.07507	1061.61633	725.93243	1451.41382	1009.94232	800.0658	1289.23938	1023.40735	551.79749	1327.92358	1118.22607	620.58148	1474.7019	855.36121	571.34662	1277.32178	789.59875	543.89832	1141.92725	784.12598	516.84894	1016.12933	765.65369	546.89105	878.66931	764.32867	493.32181	895.70453	756.19403	492.03687	831.5498	741.11957	678.39905	1491.45886	1214.06067	677.86829	1307.27527	1313.54663	725.98553	1170.8219	1352.21399	815.59595	1085.38916	1359.27515	921.30566	1010.77362	1325.21936	891.41681	979.29114	1361.40662	959.48254	957.70874	1357.61597	799.49341	979.46411	915.88702	808.55658	964.66705	1169.90979	591.72253	1020.97437	1001.2146	591.65918	1020.84784	1116.61963	791.49933	664.61237	879.57806	808.85541	468.89221	929.43909	755.31964	282.06927	941.72223	752.59497	66.40489	993.20715	720.30664	39.71378	1050.73767	905.63824	30.10112	968.21899	740.35181	663.6026	1270.03503	738.2442	464.07767	1271.93384	584.28015	363.93802	1277.54138	437.0918	242.08005	1245.89307	386.8042	222.55385	1181.66016	478.04755	89.25407	1286.77527	681.90802	1799.10767	1027.72473	-2845.89355	1034.55627	3357.43237
126	1.25	768.99109	1719.85583	922.41058	800.24817	1713.88879	1063.03821	635.42413	1656.08777	952.45703	654.27295	1650.14441	1094.32983	595.80518	1510.37024	1039.61951	575.72058	1228.47949	1059.63074	737.89398	1453.62952	1007.94971	811.82172	1291.31213	1021.02673	564.1109	1329.92822	1115.83752	632.11646	1477.49854	853.62109	586.40771	1279.4198	787.28882	559.7981	1143.35754	781.3526	537.25958	1016.46277	762.88885	571.51038	880.00903	762.34973	517.48621	895.23193	753.53546	518.72064	831.06	738.49658	690.93256	1493.51428	1211.89343	689.71875	1309.35925	1311.43518	736.86499	1171.9281	1348.84546	824.11371	1083.8927	1355.75208	927.39417	1005.62622	1321.26782	896.96533	975.7063	1358.07837	964.20477	950.95557	1353.32446	810.38177	981.17499	914.10602	820.43866	968.2619	1168.68225	603.13068	1023.24976	998.72589	603.65094	1023.48523	1113.82092	796.26294	664.73749	877.52002	811.2301	468.34955	927.45032	756.25415	281.83624	940.84125	752.3371	66.22555	993.39966	719.83795	39.63538	1050.67017	905.47443	30.13586	967.75763	759.62823	666.58191	1267.31494	763.10852	467.57507	1268.78345	611.10858	365.39853	1274.17175	466.63824	239.9901	1243.37085	416.12686	218.47763	1179.57117	512.08417	89.63177	1286.40833	694.86871	1801.3324	1024.85364	-2845.86133	1034.43494	3357.02563
